solid OpenSCAD_Model
  facet normal -1 0 0
    outer loop
      vertex -6 -10 -1.5
      vertex -6 10 0
      vertex -6 10 -1.5
    endloop
  endfacet
  facet normal -1 -0 0
    outer loop
      vertex -6 10 0
      vertex -6 -10 -1.5
      vertex -6 -10 0
    endloop
  endfacet
  facet normal -0 0 1
    outer loop
      vertex -5.5 10 1.5
      vertex 5.5 -10 1.5
      vertex 5.5 10 1.5
    endloop
  endfacet
  facet normal 0 0 1
    outer loop
      vertex 5.5 -10 1.5
      vertex -5.5 10 1.5
      vertex -5.5 -10 1.5
    endloop
  endfacet
  facet normal 1 -0 0
    outer loop
      vertex 6 -10 0
      vertex 6 10 -1.5
      vertex 6 10 0
    endloop
  endfacet
  facet normal 1 0 0
    outer loop
      vertex 6 10 -1.5
      vertex 6 -10 0
      vertex 6 -10 -1.5
    endloop
  endfacet
  facet normal 0 1 0
    outer loop
      vertex 6.5 10 10
      vertex 5.5 10 1.5
      vertex 5.5 10 10
    endloop
  endfacet
  facet normal 0 1 -0
    outer loop
      vertex 6 10 0
      vertex 5.5 10 1.5
      vertex 6.5 10 0
    endloop
  endfacet
  facet normal 0 1 -0
    outer loop
      vertex 6.5 10 0
      vertex 5.5 10 1.5
      vertex 6.5 10 10
    endloop
  endfacet
  facet normal 0 1 -0
    outer loop
      vertex -5.5 10 1.5
      vertex -6.5 10 10
      vertex -5.5 10 10
    endloop
  endfacet
  facet normal 0 1 -0
    outer loop
      vertex 6 10 -1.5
      vertex 5.5 10 1.5
      vertex 6 10 0
    endloop
  endfacet
  facet normal 0 1 0
    outer loop
      vertex 5.5 10 1.5
      vertex 6 10 -1.5
      vertex -5.5 10 1.5
    endloop
  endfacet
  facet normal 0 1 0
    outer loop
      vertex -6.5 10 0
      vertex -5.5 10 1.5
      vertex -6 10 0
    endloop
  endfacet
  facet normal 0 1 0
    outer loop
      vertex -5.5 10 1.5
      vertex -6.5 10 0
      vertex -6.5 10 10
    endloop
  endfacet
  facet normal 0 1 0
    outer loop
      vertex -6 10 -1.5
      vertex -5.5 10 1.5
      vertex 6 10 -1.5
    endloop
  endfacet
  facet normal 0 1 0
    outer loop
      vertex -5.5 10 1.5
      vertex -6 10 -1.5
      vertex -6 10 0
    endloop
  endfacet
  facet normal 0 0 -1
    outer loop
      vertex -6 -10 -1.5
      vertex 6 10 -1.5
      vertex 6 -10 -1.5
    endloop
  endfacet
  facet normal -0 0 -1
    outer loop
      vertex 6 10 -1.5
      vertex -6 -10 -1.5
      vertex -6 10 -1.5
    endloop
  endfacet
  facet normal 0 -1 0
    outer loop
      vertex -6.5 -10 10
      vertex -5.5 -10 1.5
      vertex -5.5 -10 10
    endloop
  endfacet
  facet normal 0 -1 0
    outer loop
      vertex -6 -10 0
      vertex -5.5 -10 1.5
      vertex -6.5 -10 0
    endloop
  endfacet
  facet normal 0 -1 0
    outer loop
      vertex -6.5 -10 0
      vertex -5.5 -10 1.5
      vertex -6.5 -10 10
    endloop
  endfacet
  facet normal 0 -1 0
    outer loop
      vertex 5.5 -10 1.5
      vertex 6.5 -10 10
      vertex 5.5 -10 10
    endloop
  endfacet
  facet normal 0 -1 0
    outer loop
      vertex -6 -10 -1.5
      vertex -5.5 -10 1.5
      vertex -6 -10 0
    endloop
  endfacet
  facet normal 0 -1 -0
    outer loop
      vertex -5.5 -10 1.5
      vertex -6 -10 -1.5
      vertex 5.5 -10 1.5
    endloop
  endfacet
  facet normal 0 -1 0
    outer loop
      vertex 6.5 -10 0
      vertex 5.5 -10 1.5
      vertex 6 -10 0
    endloop
  endfacet
  facet normal 0 -1 0
    outer loop
      vertex 5.5 -10 1.5
      vertex 6.5 -10 0
      vertex 6.5 -10 10
    endloop
  endfacet
  facet normal 0 -1 0
    outer loop
      vertex 6 -10 -1.5
      vertex 5.5 -10 1.5
      vertex -6 -10 -1.5
    endloop
  endfacet
  facet normal 0 -1 0
    outer loop
      vertex 5.5 -10 1.5
      vertex 6 -10 -1.5
      vertex 6 -10 0
    endloop
  endfacet
  facet normal -1 0 0
    outer loop
      vertex 5.5 -10 1.5
      vertex 5.5 10 10
      vertex 5.5 10 1.5
    endloop
  endfacet
  facet normal -1 -0 0
    outer loop
      vertex 5.5 10 10
      vertex 5.5 -10 1.5
      vertex 5.5 -10 10
    endloop
  endfacet
  facet normal -0 0 1
    outer loop
      vertex 5.5 10 10
      vertex 6.5 -10 10
      vertex 6.5 10 10
    endloop
  endfacet
  facet normal 0 0 1
    outer loop
      vertex 6.5 -10 10
      vertex 5.5 10 10
      vertex 5.5 -10 10
    endloop
  endfacet
  facet normal 1 -0 0
    outer loop
      vertex 6.5 -10 10
      vertex 6.5 10 0
      vertex 6.5 10 10
    endloop
  endfacet
  facet normal 1 0 0
    outer loop
      vertex 6.5 10 0
      vertex 6.5 -10 10
      vertex 6.5 -10 0
    endloop
  endfacet
  facet normal 0 0 -1
    outer loop
      vertex 6 -10 0
      vertex 6.5 10 0
      vertex 6.5 -10 0
    endloop
  endfacet
  facet normal -0 0 -1
    outer loop
      vertex 6.5 10 0
      vertex 6 -10 0
      vertex 6 10 0
    endloop
  endfacet
  facet normal -1 0 0
    outer loop
      vertex -6.5 -10 0
      vertex -6.5 10 10
      vertex -6.5 10 0
    endloop
  endfacet
  facet normal -1 -0 0
    outer loop
      vertex -6.5 10 10
      vertex -6.5 -10 0
      vertex -6.5 -10 10
    endloop
  endfacet
  facet normal -0 0 1
    outer loop
      vertex -6.5 10 10
      vertex -5.5 -10 10
      vertex -5.5 10 10
    endloop
  endfacet
  facet normal 0 0 1
    outer loop
      vertex -5.5 -10 10
      vertex -6.5 10 10
      vertex -6.5 -10 10
    endloop
  endfacet
  facet normal 1 -0 0
    outer loop
      vertex -5.5 -10 10
      vertex -5.5 10 1.5
      vertex -5.5 10 10
    endloop
  endfacet
  facet normal 1 0 0
    outer loop
      vertex -5.5 10 1.5
      vertex -5.5 -10 10
      vertex -5.5 -10 1.5
    endloop
  endfacet
  facet normal 0 0 -1
    outer loop
      vertex -6.5 -10 0
      vertex -6 10 0
      vertex -6 -10 0
    endloop
  endfacet
  facet normal -0 0 -1
    outer loop
      vertex -6 10 0
      vertex -6.5 -10 0
      vertex -6.5 10 0
    endloop
  endfacet
  facet normal -1 0 0
    outer loop
      vertex -11 -35 -8
      vertex -11 35 10
      vertex -11 35 -8
    endloop
  endfacet
  facet normal -1 -0 0
    outer loop
      vertex -11 35 10
      vertex -11 -35 -8
      vertex -11 -35 10
    endloop
  endfacet
  facet normal 0 0 1
    outer loop
      vertex 11 35 10
      vertex 9 33 10
      vertex 11 -35 10
    endloop
  endfacet
  facet normal 0 0 1
    outer loop
      vertex 11 35 10
      vertex -9 33 10
      vertex 9 33 10
    endloop
  endfacet
  facet normal 0 0 1
    outer loop
      vertex -9 33 10
      vertex -11 35 10
      vertex -9 -33 10
    endloop
  endfacet
  facet normal -0 0 1
    outer loop
      vertex -11 35 10
      vertex -9 33 10
      vertex 11 35 10
    endloop
  endfacet
  facet normal -0 0 1
    outer loop
      vertex 9 -33 10
      vertex 11 -35 10
      vertex 9 33 10
    endloop
  endfacet
  facet normal -0 0 1
    outer loop
      vertex -9 -33 10
      vertex 11 -35 10
      vertex 9 -33 10
    endloop
  endfacet
  facet normal 0 0 1
    outer loop
      vertex -9 -33 10
      vertex -11 -35 10
      vertex 11 -35 10
    endloop
  endfacet
  facet normal 0 0 1
    outer loop
      vertex -11 -35 10
      vertex -9 -33 10
      vertex -11 35 10
    endloop
  endfacet
  facet normal 1 -0 0
    outer loop
      vertex 11 -35 10
      vertex 11 35 -8
      vertex 11 35 10
    endloop
  endfacet
  facet normal 1 0 0
    outer loop
      vertex 11 35 -8
      vertex 11 -35 10
      vertex 11 -35 -8
    endloop
  endfacet
  facet normal 0 -1 0
    outer loop
      vertex -11 -35 -8
      vertex 11 -35 10
      vertex -11 -35 10
    endloop
  endfacet
  facet normal 0 -1 -0
    outer loop
      vertex 11 -35 10
      vertex -11 -35 -8
      vertex 11 -35 -8
    endloop
  endfacet
  facet normal 0 1 -0
    outer loop
      vertex 11 35 -8
      vertex -11 35 10
      vertex 11 35 10
    endloop
  endfacet
  facet normal 0 1 0
    outer loop
      vertex -11 35 10
      vertex 11 35 -8
      vertex -11 35 -8
    endloop
  endfacet
  facet normal 1 -0 0
    outer loop
      vertex -9 -33 10
      vertex -9 33 -8
      vertex -9 33 10
    endloop
  endfacet
  facet normal 1 0 0
    outer loop
      vertex -9 33 -8
      vertex -9 -33 10
      vertex -9 -33 -8
    endloop
  endfacet
  facet normal -1 0 0
    outer loop
      vertex 9 -33 -8
      vertex 9 33 10
      vertex 9 33 -8
    endloop
  endfacet
  facet normal -1 -0 0
    outer loop
      vertex 9 33 10
      vertex 9 -33 -8
      vertex 9 -33 10
    endloop
  endfacet
  facet normal -0 0 1
    outer loop
      vertex -9 33 -8
      vertex 9 -33 -8
      vertex 9 33 -8
    endloop
  endfacet
  facet normal 0 0 1
    outer loop
      vertex 9 -33 -8
      vertex -9 33 -8
      vertex -9 -33 -8
    endloop
  endfacet
  facet normal 0 0 1
    outer loop
      vertex 70 120 -8
      vertex 11 35 -8
      vertex 70 -120 -8
    endloop
  endfacet
  facet normal 0 0 1
    outer loop
      vertex 70 120 -8
      vertex -11 35 -8
      vertex 11 35 -8
    endloop
  endfacet
  facet normal 0 0 1
    outer loop
      vertex -11 35 -8
      vertex -70 120 -8
      vertex -11 -35 -8
    endloop
  endfacet
  facet normal -0 0 1
    outer loop
      vertex -70 120 -8
      vertex -11 35 -8
      vertex 70 120 -8
    endloop
  endfacet
  facet normal -0 0 1
    outer loop
      vertex 11 -35 -8
      vertex 70 -120 -8
      vertex 11 35 -8
    endloop
  endfacet
  facet normal -0 0 1
    outer loop
      vertex -11 -35 -8
      vertex 70 -120 -8
      vertex 11 -35 -8
    endloop
  endfacet
  facet normal 0 0 1
    outer loop
      vertex -11 -35 -8
      vertex -70 -120 -8
      vertex 70 -120 -8
    endloop
  endfacet
  facet normal 0 0 1
    outer loop
      vertex -70 -120 -8
      vertex -11 -35 -8
      vertex -70 120 -8
    endloop
  endfacet
  facet normal 0 1 -0
    outer loop
      vertex 9 -33 -8
      vertex -9 -33 10
      vertex 9 -33 10
    endloop
  endfacet
  facet normal 0 1 0
    outer loop
      vertex -9 -33 10
      vertex 9 -33 -8
      vertex -9 -33 -8
    endloop
  endfacet
  facet normal 0 -1 0
    outer loop
      vertex -9 33 -8
      vertex 9 33 10
      vertex -9 33 10
    endloop
  endfacet
  facet normal 0 -1 -0
    outer loop
      vertex 9 33 10
      vertex -9 33 -8
      vertex 9 33 -8
    endloop
  endfacet
  facet normal -1 0 0
    outer loop
      vertex -70 -120 -12
      vertex -70 120 -8
      vertex -70 120 -12
    endloop
  endfacet
  facet normal -1 -0 0
    outer loop
      vertex -70 120 -8
      vertex -70 -120 -12
      vertex -70 -120 -8
    endloop
  endfacet
  facet normal 1 -0 0
    outer loop
      vertex 70 -120 -8
      vertex 70 120 -12
      vertex 70 120 -8
    endloop
  endfacet
  facet normal 1 0 0
    outer loop
      vertex 70 120 -12
      vertex 70 -120 -8
      vertex 70 -120 -12
    endloop
  endfacet
  facet normal 0 1 -0
    outer loop
      vertex 70 120 -12
      vertex -70 120 -8
      vertex 70 120 -8
    endloop
  endfacet
  facet normal 0 1 0
    outer loop
      vertex -70 120 -8
      vertex 70 120 -12
      vertex -70 120 -12
    endloop
  endfacet
  facet normal 0 0 -1
    outer loop
      vertex -70 -120 -12
      vertex 70 120 -12
      vertex 70 -120 -12
    endloop
  endfacet
  facet normal -0 0 -1
    outer loop
      vertex 70 120 -12
      vertex -70 -120 -12
      vertex -70 120 -12
    endloop
  endfacet
  facet normal 0 -1 0
    outer loop
      vertex -70 -120 -12
      vertex 70 -120 -8
      vertex -70 -120 -8
    endloop
  endfacet
  facet normal 0 -1 -0
    outer loop
      vertex 70 -120 -8
      vertex -70 -120 -12
      vertex 70 -120 -12
    endloop
  endfacet
  facet normal -1 0 0
    outer loop
      vertex -310 -120 -2
      vertex -310 120 2
      vertex -310 120 -2
    endloop
  endfacet
  facet normal -1 -0 0
    outer loop
      vertex -310 120 2
      vertex -310 -120 -2
      vertex -310 -120 2
    endloop
  endfacet
  facet normal -0 0 1
    outer loop
      vertex -310 120 2
      vertex -170 -120 2
      vertex -170 120 2
    endloop
  endfacet
  facet normal 0 0 1
    outer loop
      vertex -170 -120 2
      vertex -310 120 2
      vertex -310 -120 2
    endloop
  endfacet
  facet normal 1 -0 0
    outer loop
      vertex -170 -120 2
      vertex -170 120 -2
      vertex -170 120 2
    endloop
  endfacet
  facet normal 1 0 0
    outer loop
      vertex -170 120 -2
      vertex -170 -120 2
      vertex -170 -120 -2
    endloop
  endfacet
  facet normal 0 1 -0
    outer loop
      vertex -170 120 -2
      vertex -310 120 2
      vertex -170 120 2
    endloop
  endfacet
  facet normal 0 1 0
    outer loop
      vertex -310 120 2
      vertex -170 120 -2
      vertex -310 120 -2
    endloop
  endfacet
  facet normal 0 0 -1
    outer loop
      vertex -310 -120 -2
      vertex -170 120 -2
      vertex -170 -120 -2
    endloop
  endfacet
  facet normal -0 0 -1
    outer loop
      vertex -170 120 -2
      vertex -310 -120 -2
      vertex -310 120 -2
    endloop
  endfacet
  facet normal 0 -1 0
    outer loop
      vertex -310 -120 -2
      vertex -170 -120 2
      vertex -310 -120 2
    endloop
  endfacet
  facet normal 0 -1 -0
    outer loop
      vertex -170 -120 2
      vertex -310 -120 -2
      vertex -170 -120 -2
    endloop
  endfacet
  facet normal -1 0 0
    outer loop
      vertex 170 -120 -2
      vertex 170 120 2
      vertex 170 120 -2
    endloop
  endfacet
  facet normal -1 -0 0
    outer loop
      vertex 170 120 2
      vertex 170 -120 -2
      vertex 170 -120 2
    endloop
  endfacet
  facet normal -0 0 1
    outer loop
      vertex 170 120 2
      vertex 310 -120 2
      vertex 310 120 2
    endloop
  endfacet
  facet normal 0 0 1
    outer loop
      vertex 310 -120 2
      vertex 170 120 2
      vertex 170 -120 2
    endloop
  endfacet
  facet normal 1 -0 0
    outer loop
      vertex 310 -120 2
      vertex 310 120 -2
      vertex 310 120 2
    endloop
  endfacet
  facet normal 1 0 0
    outer loop
      vertex 310 120 -2
      vertex 310 -120 2
      vertex 310 -120 -2
    endloop
  endfacet
  facet normal 0 1 -0
    outer loop
      vertex 310 120 -2
      vertex 170 120 2
      vertex 310 120 2
    endloop
  endfacet
  facet normal 0 1 0
    outer loop
      vertex 170 120 2
      vertex 310 120 -2
      vertex 170 120 -2
    endloop
  endfacet
  facet normal 0 0 -1
    outer loop
      vertex 170 -120 -2
      vertex 310 120 -2
      vertex 310 -120 -2
    endloop
  endfacet
  facet normal -0 0 -1
    outer loop
      vertex 310 120 -2
      vertex 170 -120 -2
      vertex 170 120 -2
    endloop
  endfacet
  facet normal 0 -1 0
    outer loop
      vertex 170 -120 -2
      vertex 310 -120 2
      vertex 170 -120 2
    endloop
  endfacet
  facet normal 0 -1 -0
    outer loop
      vertex 310 -120 2
      vertex 170 -120 -2
      vertex 310 -120 -2
    endloop
  endfacet
endsolid OpenSCAD_Model
